<svg xmlns="http://www.w3.org/2000/svg" enable-background="new 0 0 48 48" viewBox="0 0 48 48"><path d="M27 29.7c-.7 0-1.2.4-1.2 1.1 0 .7.4 1.1 1.1 1.1.8 0 1.3-.5 1.3-1.1C28.2 30.2 27.8 29.7 27 29.7zM21.6 23.3c0-1.2-.9-2.1-2.1-2.1-1.2 0-2.1.9-2.1 2.1 0 1.2 1 2.1 2.1 2.1C20.7 25.4 21.6 24.5 21.6 23.3zM34.2 21.3h-1.4v4.1h1.4c1.1 0 2-.8 2-2C36.3 22.2 35.4 21.3 34.2 21.3z"/><path d="M45.5,19.7V23l-4.9,0c-0.2-3.8-1.8-7.3-4.2-10l3.5-3.5l2.3,2.3l1.4-1.4l-6.1-6.1l-1.4,1.4l2.3,2.3L35,11.6
		c-2.7-2.4-6.2-3.9-10-4.2V2.5h3.3v-2h-8.6v2H23v4.9c-3.8,0.2-7.3,1.8-10,4.2L9.5,8.1l2.3-2.3l-1.4-1.4l-6.1,6.1l1.4,1.4l2.3-2.3
		l3.5,3.5c-2.4,2.7-3.9,6.2-4.2,10H2.5v-3.3h-2v8.6h2V25h4.9c0.2,3.8,1.8,7.3,4.2,10l-3.5,3.5l-2.3-2.3l-1.4,1.4l6.1,6.1l1.4-1.4
		l-2.3-2.3l3.5-3.5c2.7,2.4,6.2,3.9,10,4.2l0,4.9h-3.3v2h8.6v-2H25l0-4.9c3.8-0.2,7.3-1.8,10-4.2l3.5,3.5l-2.3,2.3l1.4,1.4l6.1-6.1
		l-1.4-1.4l-2.3,2.3L36.4,35c2.4-2.7,3.9-6.2,4.2-10l4.9,0v3.3h2v-8.6H45.5z M23.9,20.4l1.8,4.7l1.8-4.7h1l-2.4,5.8h-1l-2.3-5.8
		H23.9z M13.8,26.3c-1.7,0-3-1.3-3-3c0-1.7,1.3-2.9,3.1-2.9c0.8,0,1.7,0.3,2.2,0.9L15.4,22c-0.4-0.5-1-0.7-1.6-0.7
		c-1.2,0-2.1,0.9-2.1,2.1c0,1.2,0.9,2.1,2.1,2.1c0.6,0,1.2-0.3,1.6-0.7l0.6,0.7C15.4,25.9,14.6,26.3,13.8,26.3z M16.4,23.3
		c0-1.7,1.4-2.9,3.1-2.9c1.7,0,3.1,1.3,3.1,2.9c0,1.7-1.4,3-3.1,3C17.8,26.3,16.4,25,16.4,23.3z M20.8,32.5h-2.1v-0.7h2.1V32.5z
		 M23.5,34.7h-1v-5h-1.1v-0.9h2.1V34.7z M26.8,34.7c-0.6,0-1.3-0.2-1.7-0.4l0.4-0.7c0.4,0.2,0.9,0.4,1.3,0.4c1.1,0,1.7-0.9,1.6-2.1
		c-0.3,0.5-0.9,0.8-1.6,0.8c-1.2,0-1.9-0.7-1.9-1.9c0-1.2,0.8-2,2.1-2c1.5,0,2.4,1.1,2.4,2.8C29.3,33.5,28.3,34.7,26.8,34.7z
		 M30.3,26.3h-1v-5.8h1V26.3z M34.2,26.3h-2.4v-5.8h2.4c1.8,0,3,1.2,3,2.9C37.3,25,36,26.3,34.2,26.3z"/></svg>